<?xml version="1.0" encoding="UTF-8" standalone="no"?>
<!-- Created with Inkscape (http://www.inkscape.org/) -->

<svg
   width="36.993473mm"
   height="35.966354mm"
   viewBox="0 0 36.993473 35.966354"
   version="1.1"
   id="svg1"
   inkscape:version="1.4.2 (ebf0e940d0, 2025-05-08)"
   sodipodi:docname="alo.svg"
   xmlns:inkscape="http://www.inkscape.org/namespaces/inkscape"
   xmlns:sodipodi="http://sodipodi.sourceforge.net/DTD/sodipodi-0.dtd"
   xmlns="http://www.w3.org/2000/svg"
   xmlns:svg="http://www.w3.org/2000/svg">
  <sodipodi:namedview
     id="namedview1"
     pagecolor="#ffffff"
     bordercolor="#000000"
     borderopacity="0.25"
     inkscape:showpageshadow="2"
     inkscape:pageopacity="0.0"
     inkscape:pagecheckerboard="0"
     inkscape:deskcolor="#d1d1d1"
     inkscape:document-units="mm"
     inkscape:zoom="1.5144501"
     inkscape:cx="181.91422"
     inkscape:cy="140.64511"
     inkscape:window-width="1865"
     inkscape:window-height="1011"
     inkscape:window-x="0"
     inkscape:window-y="0"
     inkscape:window-maximized="1"
     inkscape:current-layer="layer1" />
  <defs
     id="defs1" />
  <g
     inkscape:label="Layer 1"
     inkscape:groupmode="layer"
     id="layer1"
     transform="translate(-28.71746,-12.932657)">
    <path
       style="fill:#f19bbb;fill-opacity:1;stroke:#b94646;stroke-width:0.872489;stroke-linejoin:round;stroke-opacity:1"
       d="M 36.113903,40.633347 C 35.875192,40.203666 34.93608,38.457814 34.589615,38.042055 34.381336,37.79212 34.057519,37.662389 33.827469,37.432338 33.468189,37.07306 33.272173,36.572183 32.912893,36.212906 32.783354,36.083367 32.585148,36.037588 32.455608,35.908049 31.768356,35.220797 31.627,33.719131 31.541033,32.859466 31.437,31.819126 31.198664,31.220258 31.99832,30.420602 c 0.7034,-0.7034 2.263403,-0.909968 3.04858,-1.067003 0.04341,-0.0086 0.758418,-0.01679 0.762146,0 0.333005,1.498517 0.05264,3.059549 0.304857,4.572871 0.01182,0.07088 0.120294,0.08816 0.15243,0.15243 0.07168,0.143365 0.344178,1.312879 0.609716,0.914573 1.555326,-2.332989 2.208348,-6.468868 2.743722,-9.145741 0.162213,-0.81106 0.362479,-1.617196 0.457287,-2.438865 0.05824,-0.504747 -0.0362,-1.017485 0,-1.524291 0.01494,-0.20896 0.140129,-0.400583 0.15243,-0.609716 0.335171,-5.697897 -0.454524,2.256051 0.152429,-4.420442 0.02302,-0.253135 0.07099,-1.254926 0.304857,-1.371862 0.287424,-0.143711 0.220306,0.604549 0.30486,0.914576 0.07199,0.263977 0.203237,0.508097 0.304858,0.762146 0.203237,0.914573 0.425978,1.82503 0.609715,2.743722 1.108576,5.542886 0.310027,1.413205 0.762146,5.030158 0.163926,1.311414 0.493796,2.335732 0.304858,3.658296 -0.176156,1.233097 -0.51786,2.436871 -0.762146,3.658297 -0.210352,1.051756 -0.663574,1.614222 -0.914573,2.743722 -0.01558,0.07015 -0.175152,0.220599 -0.15243,0.15243 0.143711,-0.431135 0.437645,-0.798813 0.609715,-1.219433 1.364255,-3.33484 2.771027,-6.491727 3.810728,-9.907887 0.459938,-1.511223 1.090325,-2.95446 1.676718,-4.420442 0.143712,-0.359279 0.321419,-0.704687 0.457289,-1.067003 0.03568,-0.09515 0,-0.406478 0,-0.304857 0,1.437516 0.63394,3.017277 0.914573,4.420441 0.320408,1.602039 0.388516,3.585983 0.457287,5.030159 0.0077,0.161095 -0.0054,5.639873 0,5.639873 0.09953,0 -0.158275,-0.791523 0,-1.371861 0.07858,-0.288142 1.175538,-1.773282 1.219432,-1.829149 2.359721,-3.00328 4.749638,-5.849339 6.706876,-9.145741 0.440986,-0.742713 0.795963,-1.533601 1.219434,-2.286436 0.07045,-0.125256 0.319159,-0.447856 0.304858,-0.304859 -0.07239,0.723874 -0.187105,1.458556 -0.457288,2.134007 -1.095614,2.739038 -2.298683,5.270507 -3.505867,7.92631 -0.08094,0.17808 -1.559193,3.470964 -1.371861,3.658296 0.254048,0.254048 0.500518,-0.515906 0.762145,-0.762143 0.895665,-0.842981 1.872753,-1.604171 2.896152,-2.286437 0.194781,-0.129853 1.713682,-0.951539 2.134006,-1.37186 0.584863,-0.584863 1.091857,-1.244287 1.676719,-1.829149 0.17964,-0.179641 0.440935,-0.26741 0.609716,-0.457289 0.35855,-0.403366 0.670483,-1.127768 1.067003,-1.524288 0.08034,-0.08034 0.224521,-0.07209 0.304858,-0.15243 0.03593,-0.03593 -0.02272,-0.197875 0,-0.15243 0.297037,0.594073 0.15243,1.141993 0.15243,1.829148 0,0.609719 0.05063,1.221539 0,1.829149 -0.102058,1.224679 -0.175815,2.462044 -0.457288,3.658298 -0.331207,1.407628 -0.864113,2.761587 -1.371861,4.115583 -0.46769,1.247174 -2.50713,3.082715 -3.658295,3.658298 -0.781721,0.390859 -1.654613,0.674876 -2.438867,1.067003 -0.163854,0.08193 -0.288181,0.234397 -0.457285,0.304857 -0.444945,0.185393 -0.940728,0.24172 -1.371861,0.457288 -0.390938,0.19547 -0.698257,0.527486 -1.067004,0.762146 -0.925771,0.589126 -2.643202,1.490781 -3.658297,1.829146 -0.0964,0.03213 -0.206273,-0.02465 -0.304858,0 -0.594251,0.148564 -2.977687,1.861057 -3.658297,2.286437 -0.09347,0.05842 -1.259638,0.609715 -0.762146,0.609715"
       id="path1" />
  </g>
</svg>
