<?xml version="1.0" encoding="UTF-8" standalone="no"?>
<!-- Created with Inkscape (http://www.inkscape.org/) -->

<svg
   width="10cm"
   height="10cm"
   viewBox="0 0 100 100"
   version="1.1"
   id="svg1"
   inkscape:version="1.4.3 (0d15f75042, 2025-12-25)"
   sodipodi:docname="maozinha.svg"
   xmlns:inkscape="http://www.inkscape.org/namespaces/inkscape"
   xmlns:sodipodi="http://sodipodi.sourceforge.net/DTD/sodipodi-0.dtd"
   xmlns="http://www.w3.org/2000/svg"
   xmlns:svg="http://www.w3.org/2000/svg">
  <sodipodi:namedview
     id="namedview1"
     pagecolor="#ffffff"
     bordercolor="#cccccc"
     borderopacity="1"
     inkscape:showpageshadow="0"
     inkscape:pageopacity="1"
     inkscape:pagecheckerboard="0"
     inkscape:deskcolor="#d1d1d1"
     inkscape:document-units="mm"
     inkscape:zoom="1"
     inkscape:cx="174.5"
     inkscape:cy="244.5"
     inkscape:window-width="1545"
     inkscape:window-height="831"
     inkscape:window-x="0"
     inkscape:window-y="0"
     inkscape:window-maximized="1"
     inkscape:current-layer="layer1" />
  <defs
     id="defs1" />
  <g
     inkscape:label="Layer 1"
     inkscape:groupmode="layer"
     id="layer1">
    <path
       style="fill:#ff0c0c;fill-opacity:1;stroke:#383838;stroke-width:2.53;stroke-dasharray:none;stroke-opacity:1"
       d="m 17.178873,81.3897 c -0.245063,-2.130635 0.288077,-4.332275 0,-6.458997 -0.225609,-1.665555 -0.820666,-3.330236 -1.073754,-4.991045 -0.172919,-1.134731 -0.08436,-2.40109 -0.357918,-3.523088 -0.413528,-1.696031 -1.236888,-3.328695 -1.78959,-4.991044 -0.415247,-1.248927 -0.689735,-2.556672 -1.073755,-3.81668 C 12.430487,56.121294 11.333945,53.70043 11.094265,52.324211 10.619152,49.596147 10.18106,46.868014 9.6625933,44.103668 9.030541,40.733704 8.5888395,37.538039 8.5888395,34.12158 c 0,-0.58718 -0.2263669,-1.204493 0,-1.761544 0.08436,-0.207601 0.5150664,0.149491 0.7158368,0.293591 0.8277937,0.59414 1.6945957,1.151869 2.5054257,1.761545 1.243757,0.935203 2.31812,2.016428 3.57918,2.935908 1.016701,0.741308 2.176254,1.340806 3.221264,2.055135 0.709056,-0.02929 0.169278,0.432445 0.357918,0.587182 0.08436,0.0692 0.273555,-0.0692 0.357917,0 0.746763,0.612547 0.357918,3.923427 0.357918,4.697453 0,1.859408 0.12574,3.721681 0,5.578225 -0.100586,1.485241 -0.357918,2.900416 -0.357918,4.403862 0,1.353997 1.568142,-1.60192 2.147509,-2.348726 2.712644,-3.496603 3.853827,-5.24347 4.652935,-9.394906 0.187002,-0.971481 0.160802,-1.965772 0.357919,-2.935908 0.161739,-0.796025 0.534529,-1.555544 0.715835,-2.348727 0.522596,-2.286253 0.817261,-4.731827 1.073755,-7.046179 0.248188,-2.239399 0.328353,-4.52769 0.715836,-6.752588 0.139133,-0.798894 0.539844,-1.55474 0.715836,-2.348727 0.113849,-0.513595 1.358016,-5.578225 1.78959,-5.578225 0.498283,0 4.970381,6.936175 5.010854,7.633361 0.555515,9.569114 -4.369385,19.491482 -3.937099,29.065489 0.01855,0.410834 0.460425,4.963957 0.715837,5.871817 0.01944,0.06915 0.74589,2.625881 1.78959,2.055135 2.620071,-1.432784 4.280983,-8.143248 5.010852,-9.982087 0.934403,-2.354144 1.926483,-4.692693 2.863346,-7.046179 3.006204,-7.551855 -9.384997,-36.8102205 1.073754,-29.946263 3.621211,2.37656 -3.990472,-3.9875917 0.357917,-5.2846346 L 52.254845,5.9368637 V 4.7624999 5.6432721 c 0,11.2676609 -1.789589,22.4405939 -1.789589,33.7629429 0,2.935908 -0.188119,5.875873 0,8.807724 0.08836,1.377134 0.588101,3.294192 1.073754,2.642318 3.555196,-4.772023 3.33056,-5.008992 6.084606,-9.688497 1.796751,-3.052922 4.098166,-5.984367 5.726691,-9.101315 1.646566,-3.151483 -2.677952,-9.759886 -1.073756,-12.917996 0.958959,-1.887862 6.756883,-0.515713 7.874199,-2.348725 0.0015,-0.0021 0.442559,-0.880773 0.715837,-0.880773 0.111454,0 -0.157607,0.627638 0,1.467953 1.052289,5.610582 0.715835,-0.694151 0.715835,6.458999 v 13.211586 c 0,3.266767 -0.07025,6.758052 0.715836,9.982087 0.321232,1.317492 1.458634,3.577383 3.579182,3.229499 0.851693,-0.139726 1.653731,-0.447456 2.505425,-0.587181 0.233979,-0.03838 0.547115,0.138398 0.715837,0 0.168723,-0.138399 -0.0468,-0.395257 0,-0.587182 0.09648,-0.395667 0.261445,-0.778697 0.357918,-1.174363 0.261596,-1.072901 0.43248,-2.160324 0.715837,-3.229499 0.313489,-1.182877 0.715836,-2.348727 1.073753,-3.52309 0.357918,-1.761545 0.646785,-3.53347 1.073755,-5.284635 1.003978,-4.117681 3.291064,-7.919635 4.295017,-12.037222 0.562229,-2.305904 0.0306,-4.613433 1.073754,-6.752589 0.948447,-1.944967 1.898232,-3.769482 3.221263,-5.578225 0.0015,-0.0021 0.442394,-0.880772 0.715836,-0.880772 0.1193,0 -0.01312,0.196325 0,0.29359 0.505899,3.734781 0.357918,1.045011 0.357918,5.284635 0,6.373626 -1.824618,12.460745 -2.505426,18.789811 -0.315287,2.931037 -0.346722,5.880918 -0.715836,8.807724 -0.705014,5.590278 -1.525462,11.101525 -1.789592,16.734676 -0.04128,0.880121 0,1.761545 0,2.642318 -0.238612,0.880772 -0.616251,1.743765 -0.715834,2.642317 -0.240655,2.17142 0.473349,5.483539 -1.789591,7.33977 -1.254876,1.029341 -2.67206,1.294409 -4.295017,2.055135 -1.629308,0.7637 -3.446273,1.523692 -5.010853,2.348727 -1.003579,0.529206 -1.957505,1.124658 -2.863346,1.761545 -0.768629,0.540418 -1.289041,1.321435 -2.147508,1.761544 -0.900927,0.46188 -4.214754,1.513505 -5.726689,1.761545 -1.67351,0.274548 -0.499689,-0.38224 -2.147508,0.293591 -6.119333,2.509765 -6.442526,5.03254 -6.442526,9.982088"
       id="path1"
       sodipodi:nodetypes="csssssssssssscscsssssssssssssssssssccssssssscssssssssssscssscscsssscssssssssc" />
  </g>
</svg>
